<svg width="27" height="24" viewBox="0 0 27 24" fill="none" xmlns="http://www.w3.org/2000/svg">
<path d="M20.4947 10.5449H12.7083V13.6351H17.1892C16.7721 15.5988 15.0264 16.7271 12.7083 16.7271C9.97513 16.7271 7.77211 14.6174 7.77211 11.9991C7.77211 9.38169 9.97513 7.27199 12.7083 7.27199C13.8856 7.27199 14.9497 7.67226 15.7847 8.32684L18.2159 5.99955C16.7347 4.76293 14.8356 4 12.7083 4C8.07601 4 4.35443 7.56302 4.35443 12C4.35443 16.437 8.07507 20 12.7083 20C16.8853 20 20.6835 17.0907 20.6835 12C20.6835 11.5272 20.6078 11.0177 20.4947 10.5449Z" fill="white"/>
</svg>
